# xmcd
#
# Track frame offsets: 
#        150
#        12785
#        21800
#        43563
#        61488
#        82028
#        99258
#        111975
#        122448
#        135188
#        145705
#        159533
#        172233
#        187048
#        198848
#        212433
#
# Disc length: 2963 seconds
#
# Revision: 0
# Processed by: cddbd v1.5.1PL2 Copyright (c) Steve Scherf et al.
# Submitted via: ExactAudioCopy v0.95b3
#
DISCID=d00b9110
DTITLE=Jonny Hill - Country Songs
DYEAR=1994
DGENRE=Country
TTITLE0=500 Meilen von Zu Haus (500 Miles Away From Home)
TTITLE1=Ein Ring aus Feuer (Ring Of Fire)
TTITLE2=Ruf Teddyb‰r Eins-Vier
TTITLE3=Der alte Fluﬂ (The Banks Of The Ohio)
TTITLE4=Der Feigling (The Coward Of The County)
TTITLE5=Geisterreiter (Riders In The Sky)
TTITLE6=Green Green Grass Of Home (deutsch)
TTITLE7=Heute Nacht da brauch' ich dich (Help Me Make It Trough The Ni
TTITLE7=ght)
TTITLE8=Kann Liebe alles verzeih'n (Some Broken Hearts Never Mend)
TTITLE9=Kˆnig der Landstraﬂe (King Of The Road)
TTITLE10=Laﬂ uns auseinander gehn (Please, Release Me)
TTITLE11=Clementine (My Darling Clementine)
TTITLE12=London (Jackson)
TTITLE13=Oh, warum nicht (Oh, Lonesome Me)
TTITLE14=Ruby mach's mir doch nicht so schwer (Ruby, Don't Take Your L
TTITLE14=ove)
TTITLE15=Susanna (Oh, Susanna)
EXTD=
EXTT0=
EXTT1=
EXTT2=
EXTT3=
EXTT4=
EXTT5=
EXTT6=
EXTT7=
EXTT8=
EXTT9=
EXTT10=
EXTT11=
EXTT12=
EXTT13=
EXTT14=
EXTT15=
PLAYORDER=
